<svg fill="#ffffff" height="60px" width="60px" version="1.1" xmlns="http://www.w3.org/2000/svg" viewBox="0 0 512 512" xmlns:xlink="http://www.w3.org/1999/xlink" enable-background="new 0 0 512 512" stroke="#ffffff"><g id="SVGRepo_bgCarrier" stroke-width="0"></g><g id="SVGRepo_tracerCarrier" stroke-linecap="round" stroke-linejoin="round"></g><g id="SVGRepo_iconCarrier"> <g> <g> <path d="m468,231.6c-5.5-67-60.6-120.2-126.3-120.2-13.3,0-26.2,2.1-38.7,6.3-23.5-34.8-61.8-55.7-103.7-55.7-70,0-126.9,58.9-126.9,131.2 0,5 0.3,10.1 0.9,15.2-37.7,23.6-61.3,66.1-61.3,112.4 0,72.3 56.9,131.2 126.9,131.2h236.2c70,0 126.9-58.9 126.9-131.2 0-33.5-12-64.9-34-89.2zm-92.9,179.7h-236.2c-47.4,0-86-40.6-86-90.5 0-35.9 20.3-68.5 51.7-82.9 8.8-4 13.5-13.7 11.3-23.1-1.7-7.3-2.6-14.6-2.6-21.5 0-49.9 38.6-90.5 86-90.5 32.5,0 61.4,19.2 76.6,49.6 6.7,13.4 20.9,12.6 27.8,9.2 12.1-5.9 24.7-9.4 37.9-9.4 46.4,0 84.9,39.7 85.9,88.5 0.1,5.3 2.3,10.4 6.1,14.1 17.7,17.4 27.4,40.8 27.4,66.1 0.2,49.8-38.4,90.4-85.9,90.4z"></path> <path d="m358,257.9l-128.4-90.7c-6.2-4.4-14.4-5-21.2-1.5-6.8,3.5-11,10.5-11,18.1v181.4c0,7.6 4,15.1 11,18.1 7.8,3.3 17.7,1 21.2-1.5l128.4-90.6c5.4-3.8 8.6-10 8.6-16.6 0-6.6-3.2-12.8-8.6-16.7zm-119.9,68v-102.7l72.7,51.3-72.7,51.4z"></path> </g> </g> </g></svg>